<svg width="17" height="21" viewBox="0 0 17 21" fill="none" xmlns="http://www.w3.org/2000/svg">
<path d="M0 7.53732C0 6.65551 0.184759 5.78001 0.556376 4.9129C0.927993 4.0458 1.45917 3.23958 2.15202 2.49844C2.84486 1.75731 3.75396 1.15474 4.88141 0.692845C6.00886 0.230948 7.25808 0 8.62907 0C10.8546 0 12.6812 0.686547 14.1089 2.05754C15.5365 3.42853 16.2504 5.04517 16.2504 6.90746C16.2504 9.30092 15.6457 11.2787 14.4343 12.8386C13.2228 14.3986 11.6587 15.1796 9.74183 15.1796C9.11197 15.1796 8.5199 15.0326 7.96772 14.7387C7.41554 14.4448 7.02713 14.0879 6.80248 13.6679L5.96267 16.9852C5.89338 17.2518 5.801 17.5206 5.68973 17.7935C5.57845 18.0665 5.45458 18.3289 5.32231 18.5808C5.19004 18.8328 5.05567 19.07 4.9234 19.2947C4.79113 19.5193 4.65676 19.7293 4.52449 19.9246C4.39222 20.1198 4.27675 20.2857 4.17807 20.4179C4.07939 20.5502 3.98911 20.6657 3.90513 20.7644L3.77916 20.9323C3.73717 20.989 3.68048 21.01 3.61119 20.9953C3.54191 20.9806 3.49992 20.9386 3.48522 20.8693C3.48522 20.8546 3.47472 20.7581 3.45373 20.5754C3.43273 20.3927 3.41174 20.2017 3.39074 19.998C3.36975 19.7944 3.34875 19.5319 3.32776 19.2107C3.30676 18.8895 3.30046 18.5767 3.30676 18.2764C3.31306 17.9762 3.33406 17.6424 3.36975 17.2791C3.40544 16.9159 3.45793 16.58 3.52721 16.2714C3.68048 15.6142 4.19906 13.4223 5.08087 9.69983C4.96959 9.47518 4.87721 9.20644 4.80793 8.89151C4.73864 8.57658 4.70295 8.32044 4.70295 8.12519L4.68195 7.81026C4.68195 6.91376 4.9087 6.16842 5.3643 5.57426C5.8199 4.98009 6.36788 4.68195 7.01243 4.68195C7.53102 4.68195 7.93203 4.85412 8.21967 5.19634C8.5073 5.53856 8.65007 5.96897 8.65007 6.48755C8.65007 6.80878 8.59128 7.20559 8.47161 7.67379C8.35194 8.14198 8.19447 8.68156 7.99921 9.29042C7.80396 9.89929 7.66329 10.3927 7.57931 10.7706C7.43864 11.4005 7.56251 11.9463 7.94673 12.4082C8.33094 12.8701 8.84533 13.1011 9.48988 13.1011C10.5963 13.1011 11.5096 12.4754 12.2298 11.222C12.9499 9.96857 13.311 8.45481 13.311 6.67651C13.311 5.31811 12.8701 4.20956 11.9883 3.34875C11.1065 2.48794 9.8741 2.05754 8.29315 2.05754C6.52954 2.05754 5.09766 2.62441 3.99961 3.75816C2.90155 4.89191 2.35148 6.2503 2.35148 7.83125C2.35148 8.76974 2.61812 9.55916 3.1493 10.2037C3.33196 10.4137 3.38654 10.6383 3.31726 10.8756C3.28997 10.9449 3.24797 11.1065 3.19129 11.3585C3.1346 11.6104 3.09261 11.7721 3.06532 11.8414C3.03802 11.9946 2.96664 12.0975 2.85536 12.1458C2.74409 12.1941 2.61812 12.192 2.47745 12.1353C1.65233 11.7994 1.03297 11.222 0.619362 10.4032C0.205754 9.58436 0 8.62907 0 7.53732Z" fill="black" fill-opacity="0.5"/>
</svg>
