<svg width="25" height="24" viewBox="0 0 25 24" fill="none" xmlns="http://www.w3.org/2000/svg">
<path d="M12.5028 5.6799C8.95565 5.6799 6.09452 8.34882 6.09452 11.6577C6.09452 14.9665 8.95565 17.6354 12.5028 17.6354C16.0499 17.6354 18.911 14.9665 18.911 11.6577C18.911 8.34882 16.0499 5.6799 12.5028 5.6799ZM12.5028 15.544C10.2105 15.544 8.33657 13.8011 8.33657 11.6577C8.33657 9.5142 10.2049 7.77134 12.5028 7.77134C14.8006 7.77134 16.669 9.5142 16.669 11.6577C16.669 13.8011 14.795 15.544 12.5028 15.544ZM20.6678 5.43538C20.6678 6.21057 19.9986 6.82967 19.1731 6.82967C18.3421 6.82967 17.6784 6.20536 17.6784 5.43538C17.6784 4.6654 18.3477 4.0411 19.1731 4.0411C19.9986 4.0411 20.6678 4.6654 20.6678 5.43538ZM24.9121 6.85048C24.8173 4.98276 24.36 3.32834 22.8932 1.96527C21.4319 0.602197 19.6584 0.175587 17.6561 0.0819404C15.5926 -0.0273135 9.4074 -0.0273135 7.34382 0.0819404C5.34717 0.170384 3.57361 0.596995 2.1068 1.96007C0.639988 3.32314 0.188232 4.97756 0.0878414 6.84528C-0.0292805 8.77023 -0.0292805 14.5399 0.0878414 16.4648C0.182654 18.3325 0.639988 19.987 2.1068 21.35C3.57361 22.7131 5.3416 23.1397 7.34382 23.2334C9.4074 23.3426 15.5926 23.3426 17.6561 23.2334C19.6584 23.1449 21.4319 22.7183 22.8932 21.35C24.3544 19.987 24.8117 18.3325 24.9121 16.4648C25.0292 14.5399 25.0292 8.77543 24.9121 6.85048ZM22.2462 18.5302C21.8112 19.55 20.969 20.3355 19.8703 20.7465C18.225 21.3552 14.3209 21.2148 12.5028 21.2148C10.6846 21.2148 6.77495 21.35 5.13524 20.7465C4.0421 20.3407 3.19994 19.5552 2.75934 18.5302C2.1068 16.9955 2.25739 13.3537 2.25739 11.6577C2.25739 9.96162 2.11238 6.31462 2.75934 4.78506C3.19436 3.76536 4.03652 2.97977 5.13524 2.56877C6.78052 1.96007 10.6846 2.10054 12.5028 2.10054C14.3209 2.10054 18.2306 1.96527 19.8703 2.56877C20.9634 2.97457 21.8056 3.76016 22.2462 4.78506C22.8987 6.31982 22.7481 9.96162 22.7481 11.6577C22.7481 13.3537 22.8987 17.0007 22.2462 18.5302Z" fill="black" fill-opacity="0.5"/>
</svg>
