<svg width="27" height="22" viewBox="0 0 27 22" fill="none" xmlns="http://www.w3.org/2000/svg">
<g clip-path="url(#clip0_19_190)">
<path d="M26.5785 2.55546C25.6009 2.98927 24.5508 3.28253 23.4468 3.41435C24.5736 2.73964 25.4368 1.67047 25.8443 0.397983C24.774 1.03368 23.6026 1.48122 22.3811 1.72114C21.387 0.661545 19.9695 0 18.4012 0C15.391 0 12.9497 2.44033 12.9497 5.45233C12.9497 5.87909 12.9977 6.29544 13.0901 6.69519C8.55863 6.46744 4.54115 4.2968 1.85204 0.99851C1.38249 1.80405 1.11372 2.74063 1.11372 3.73991C1.11372 5.63129 2.07641 7.30008 3.53919 8.27761C2.67325 8.25078 1.82631 8.01704 1.06917 7.59594V7.66484C1.06917 10.3068 2.94831 12.5097 5.44275 13.0108C4.98453 13.1363 4.50364 13.2019 4.00615 13.2019C3.6544 13.2019 3.31314 13.1686 2.97977 13.1059C3.67361 15.2713 5.68724 16.8476 8.07246 16.8921C6.20642 18.3549 3.85512 19.2269 1.30134 19.2269C0.861486 19.2269 0.426767 19.2006 0 19.1492C2.4133 20.6966 5.27871 21.6 8.35791 21.6C18.3864 21.6 23.871 13.2918 23.871 6.08692C23.871 5.85038 23.8658 5.6156 23.8544 5.38167C24.923 4.60876 25.8454 3.65175 26.5785 2.55546Z" fill="black" fill-opacity="0.5"/>
</g>
<defs>
<clipPath id="clip0_19_190">
<rect width="27" height="21.6" fill="white"/>
</clipPath>
</defs>
</svg>
